<?xml version="1.0" encoding="utf-8"?>
<!-- Generator: Adobe Illustrator 23.0.3, SVG Export Plug-In . SVG Version: 6.00 Build 0)  -->
<svg version="1.1" id="Layer_1" xmlns="http://www.w3.org/2000/svg" xmlns:xlink="http://www.w3.org/1999/xlink" x="0px" y="0px"
	 viewBox="0 0 1000 1000" enable-background="new 0 0 1000 1000" xml:space="preserve">
<g>
	<g>
		
			<linearGradient id="SVGID_1_" gradientUnits="userSpaceOnUse" x1="500.0002" y1="135.2323" x2="500.0002" y2="451.8951" gradientTransform="matrix(1 0 0 -1 0 997.7323)">
			<stop  offset="0" style="stop-color:#6713D2"/>
			<stop  offset="0.6168" style="stop-color:#A81BA6"/>
			<stop  offset="1" style="stop-color:#CC208E"/>
		</linearGradient>
		<path fill="url(#SVGID_1_)" d="M673.21,812.51v-0.01h-0.01l-28.86-50h-0.01l-28.86-50l-28.87-50l-28.86-50h-0.01l-28.86-50h-0.01
			v-0.0001c-12.8263-22.217-44.8937-22.217-57.7199,0V562.5h-0.01l-28.86,50h-0.01l-28.86,50l-28.87,50l-28.86,50h-0.01l-28.86,50
			h-0.01v0.01l-0.0027,0.0046c-12.8257,22.2161,3.2074,49.9854,28.86,49.9854h288.7054c25.6525,0,41.6856-27.7693,28.8599-49.9854
			L673.21,812.51z M384.53,812.5l57.74-100l28.86-50l16.37-28.35c-8.1273-4.6893-13.3664-13.8412-12.3814-24.1202
			c1.1581-12.0858,11.1422-21.7143,23.2593-22.4785C512.923,586.6339,525,598.1531,525,612.5c0,9.26-5.03,17.34-12.5,21.65
			l16.37,28.35l28.86,50l57.74,100H384.53z"/>
		<g>
			
				<linearGradient id="SVGID_2_" gradientUnits="userSpaceOnUse" x1="644.3387" y1="435.2301" x2="579.2087" y2="548.0387" gradientTransform="matrix(1 0 0 -1 0 997.7323)">
				<stop  offset="0" style="stop-color:#6713D2"/>
				<stop  offset="0.6168" style="stop-color:#A81BA6"/>
				<stop  offset="1" style="stop-color:#CC208E"/>
			</linearGradient>
			<path fill="url(#SVGID_2_)" d="M673.21,412.5l-28.87,50l-28.8701,50l-28.87,50l-28.86,50h-0.01l-28.86-50l28.86-49.99v-0.01h0.01
				l27.06-46.88c23.43-13.01,43.57-31.24,58.83-53.12H673.21z"/>
			
				<linearGradient id="SVGID_3_" gradientUnits="userSpaceOnUse" x1="500" y1="318.5479" x2="500" y2="363.5822" gradientTransform="matrix(1 0 0 -1 0 997.7323)">
				<stop  offset="0.8994" style="stop-color:#6713D2"/>
				<stop  offset="0.9446" style="stop-color:#6913D1"/>
				<stop  offset="0.9608" style="stop-color:#7014CC"/>
				<stop  offset="0.9724" style="stop-color:#7B16C4"/>
				<stop  offset="0.9818" style="stop-color:#8C18B9"/>
				<stop  offset="0.9898" style="stop-color:#A21BAA"/>
				<stop  offset="0.9968" style="stop-color:#BD1E98"/>
				<stop  offset="1" style="stop-color:#CC208E"/>
			</linearGradient>
			<path fill="url(#SVGID_3_)" d="M528.87,662.5l-0.0146,0.0254c-12.8251,22.2119-44.8855,22.2119-57.7107,0L471.13,662.5
				l16.37-28.35c3.68,2.1299,7.95,3.35,12.5,3.35s8.82-1.22,12.5-3.35L528.87,662.5z"/>
			
				<linearGradient id="SVGID_4_" gradientUnits="userSpaceOnUse" x1="355.6612" y1="435.2301" x2="420.7913" y2="548.0386" gradientTransform="matrix(1 0 0 -1 0 997.7323)">
				<stop  offset="0" style="stop-color:#6713D2"/>
				<stop  offset="0.6168" style="stop-color:#A81BA6"/>
				<stop  offset="1" style="stop-color:#CC208E"/>
			</linearGradient>
			<path fill="url(#SVGID_4_)" d="M471.13,562.5l-28.86,50h-0.01l-28.86-50l-28.87-50l-28.8701-50l-28.87-50h29.58
				c15.26,21.88,35.4,40.11,58.83,53.12l27.06,46.88h0.01v0.01L471.13,562.5z"/>
		</g>
	</g>
	
		<linearGradient id="SVGID_5_" gradientUnits="userSpaceOnUse" x1="1233.1915" y1="72.5703" x2="1583.1993" y2="72.5701" gradientTransform="matrix(-0.866 -0.5 -0.5 0.866 1755.7815 953.7449)">
		<stop  offset="0" style="stop-color:#66CC66"/>
		<stop  offset="0.2627" style="stop-color:#4ED58A"/>
		<stop  offset="0.8435" style="stop-color:#11ECE4"/>
		<stop  offset="1" style="stop-color:#00F2FE"/>
	</linearGradient>
	<path fill="url(#SVGID_5_)" d="M346.9469,227.6567c-12.3676,22.2814-19.3467,46.1495-21.356,70.0696
		c-3.0944,36.6996,5.5371,73.5296,24.4105,104.9798c12.3898,20.6402,29.1969,38.9694,50.0005,53.4167
		c4.0126,2.79,8.1857,5.4419,12.4985,7.9319c4.3128,2.49,8.696,4.7781,13.1185,6.8581
		c22.9135,10.7927,47.1906,16.1834,71.2605,16.5933c36.6735,0.6198,72.8848-10.3203,103.1204-31.3499
		c19.7108-13.7001,36.8917-31.6783,50.004-53.5296c0.5223-0.8647,1.041-1.743,1.551-2.6263s1.0113-1.7717,1.499-2.6564
		c7.9112-14.2425,13.6075-29.1288,17.2223-44.2699c2.0449-8.5419,3.4093-17.165,4.1337-25.7997
		c0.8304-9.8783,0.8149-19.7715-0.0222-29.5616c-2.2755-26.5786-10.6024-52.4363-24.3883-75.4183
		c-8.0768-13.4504-18.0273-25.9157-29.7293-36.9673c-6.2536-5.9084-13.0151-11.4172-20.2712-16.4494
		c-4.0125-2.79-8.1857-5.4419-12.4985-7.9319s-8.696-4.7781-13.1185-6.858c-7.9861-3.7679-16.1376-6.869-24.3812-9.3307
		c-15.422-4.6083-31.1925-6.9931-46.8793-7.2626c-26.796-0.448-53.3527,5.2697-77.5083,16.5883
		c-8.8971,4.1702-17.4726,9.1033-25.6122,14.7616c-7.1156,4.9446-13.9013,10.4377-20.2763,16.4797
		c-11.3051,10.7011-21.3489,23.0774-29.7277,37.0499c-0.5223,0.8647-1.041,1.743-1.551,2.6264S347.4346,226.772,346.9469,227.6567z
		 M400.0042,227.4588c6.0125-7.0941,12.6829-13.4274,19.8694-18.9548c9.2911-7.1527,19.4384-12.9682,30.1275-17.3624
		c8.4984-3.4997,17.3413-6.0961,26.3698-7.754c7.7735-1.424,15.6753-2.1505,23.6236-2.1572
		c7.8813-0.0108,15.814,0.6894,23.6752,2.1334c8.9072,1.6323,17.7308,4.2093,26.3342,7.7678
		c5.3027,2.1955,10.5206,4.7577,15.6215,7.7027c5.1009,2.945,9.9288,6.1828,14.4816,9.6773
		c7.3834,5.6715,14.027,12.0244,19.8942,18.9222c5.1812,6.0859,9.7538,12.6058,13.6852,19.4366
		c3.9683,6.8868,7.2901,14.0932,9.9435,21.5372c3.0786,8.6479,5.2515,17.6042,6.4698,26.7139
		c1.5391,11.4541,1.5764,23.1497,0.0275,34.7724c-1.1935,8.9873-3.3432,17.9306-6.4806,26.6847
		c-2.6226,7.3425-5.9404,14.549-9.9803,21.5465c-4.04,6.9975-8.6222,13.4741-13.6697,19.4165
		c-13.7896,16.2642-31.0392,28.5215-49.9968,36.3171c-15.8113,6.506-32.8156,9.8984-50.0021,9.9062
		c-7.8863,0.0195-15.8054-0.6844-23.6665-2.1284c-8.8986-1.6273-17.7222-4.2043-26.3256-7.7628
		c-5.3027-2.1955-10.5206-4.7577-15.6302-7.7077s-9.9375-6.1878-14.4902-9.6823c-7.3834-5.6715-14.027-12.0244-19.8856-18.9172
		c-5.1812-6.0859-9.7502-12.5921-13.6765-19.4316c-8.5865-14.8878-14.1508-31.3101-16.4221-48.2561
		c-2.7277-20.3156-0.7374-41.3829,6.4531-61.4571c2.6226-7.3425,5.9403-14.549,9.9803-21.5465
		C390.3745,239.8778,394.9567,233.4012,400.0042,227.4588z"/>
	
		<linearGradient id="SVGID_6_" gradientUnits="userSpaceOnUse" x1="475" y1="385.2323" x2="525" y2="385.2323" gradientTransform="matrix(1 0 0 -1 0 997.7323)">
		<stop  offset="0" style="stop-color:#E93E3A"/>
		<stop  offset="0.1124" style="stop-color:#ED683C"/>
		<stop  offset="0.3315" style="stop-color:#F3903F"/>
		<stop  offset="0.7191" style="stop-color:#FDC70C"/>
		<stop  offset="0.8036" style="stop-color:#FDCA10"/>
		<stop  offset="0.8829" style="stop-color:#FED51B"/>
		<stop  offset="0.9599" style="stop-color:#FEE72E"/>
		<stop  offset="1" style="stop-color:#FFF33B"/>
	</linearGradient>
	<path fill="url(#SVGID_6_)" d="M525,612.5c0,9.26-5.03,17.34-12.5,21.65c-3.68,2.1299-7.95,3.35-12.5,3.35s-8.82-1.22-12.5-3.35
		c-7.47-4.3101-12.5-12.39-12.5-21.65c0-13.81,11.19-25,25-25S525,598.69,525,612.5z"/>
	
		<linearGradient id="SVGID_7_" gradientUnits="userSpaceOnUse" x1="450" y1="685.2323" x2="550" y2="685.2323" gradientTransform="matrix(1 0 0 -1 0 997.7323)">
		<stop  offset="0" style="stop-color:#FFF33B"/>
		<stop  offset="1" style="stop-color:#E93E3A"/>
	</linearGradient>
	<path fill="url(#SVGID_7_)" d="M550,312.5c0,18.52-10.0601,34.6799-25,43.3c-7.36,4.2599-15.9,6.7-25,6.7s-17.64-2.4401-25-6.7
		c-14.9399-8.6201-25-24.78-25-43.3c0-27.62,22.38-50,50-50S550,284.88,550,312.5z"/>
</g>
</svg>
